
v -0.556751 -0.023763 -0.141540
v -0.556645 0.003057 -0.140628
v -0.557624 0.003306 -0.148676
v -0.557766 -0.024541 -0.149907
v -0.556161 0.007524 -0.142045
v -0.556644 0.008013 -0.148648
v -0.556744 0.008562 -0.159640
v -0.557765 0.003637 -0.159869
v -0.557910 -0.025586 -0.161228
v 0.565100 -0.025586 -0.161228
v 0.564871 0.003637 -0.159869
v 0.564651 0.003306 -0.148676
v 0.564873 -0.024541 -0.149907
v 0.563268 0.008562 -0.159640
v 0.563111 0.008013 -0.148648
v 0.562352 0.007524 -0.142045
v 0.563113 0.003057 -0.140628
v 0.563283 -0.023761 -0.141539
v -0.534047 -0.023283 -0.137597
v -0.534090 0.002997 -0.136865
v -0.552147 0.002989 -0.137337
v -0.552174 -0.023423 -0.138093
v -0.534092 0.007653 -0.140079
v -0.552088 0.007630 -0.140416
v -0.556161 0.007524 -0.142045
v -0.556645 0.003057 -0.140628
v -0.556751 -0.023763 -0.141540
v 0.538596 -0.200635 -0.169365
v 0.557654 -0.200949 -0.169379
v 0.557625 -0.191845 -0.157748
v 0.538594 -0.191473 -0.157667
v 0.563360 -0.199167 -0.169297
v 0.563210 -0.190287 -0.157866
v 0.562488 -0.184115 -0.150954
v 0.557537 -0.183610 -0.149306
v 0.538581 -0.182954 -0.148940
v -0.534091 0.008998 -0.159620
v -0.552163 0.008944 -0.159622
v -0.552144 0.008371 -0.148441
v -0.534091 0.008421 -0.148375
v -0.556744 0.008562 -0.159640
v -0.556644 0.008013 -0.148648
v -0.556161 0.007524 -0.142045
v -0.552088 0.007630 -0.140416
v -0.534092 0.007653 -0.140079
v 0.463542 0.008998 -0.159620
v 0.439826 0.008998 -0.159620
v 0.439888 0.008421 -0.148301
v 0.463543 0.008422 -0.148375
v 0.409472 0.008998 -0.159620
v 0.409547 0.008426 -0.148007
v 0.409841 0.007619 -0.136592
v 0.440444 0.007656 -0.139720
v 0.463553 0.007658 -0.140079
v 0.348713 0.008998 -0.159620
v 0.347951 0.008449 -0.147918
v 0.255941 0.008998 -0.159620
v 0.255143 0.008452 -0.147887
v 0.249552 0.007908 -0.136175
v 0.341585 0.007889 -0.136443
v 0.136898 0.008998 -0.159620
v 0.136457 0.008452 -0.147871
v 0.004545 0.008998 -0.159620
v 0.004543 0.008452 -0.147869
v 0.004529 0.007901 -0.136032
v 0.133362 0.007902 -0.136050
v -0.126883 0.008998 -0.159620
v -0.126442 0.008452 -0.147869
v -0.245266 0.008998 -0.159620
v -0.244426 0.008452 -0.147869
v -0.238541 0.007901 -0.136032
v -0.123353 0.007901 -0.136032
v -0.339829 0.008998 -0.159620
v -0.338944 0.008447 -0.147870
v -0.403055 0.008998 -0.159620
v -0.403028 0.008424 -0.147958
v -0.402302 0.007595 -0.136078
v -0.331605 0.007870 -0.136037
v -0.456613 -0.198306 -0.169257
v -0.432363 -0.199363 -0.169306
v -0.432402 -0.190090 -0.157520
v -0.456608 -0.189146 -0.157559
v -0.400976 -0.211076 -0.169850
v -0.400957 -0.201467 -0.157715
v -0.400301 -0.188967 -0.145216
v -0.432837 -0.180976 -0.148431
v -0.456573 -0.180648 -0.148833
v -0.337564 -0.239386 -0.171166
v -0.336686 -0.230104 -0.158959
v -0.243074 -0.274395 -0.172794
v -0.242240 -0.265062 -0.160583
v -0.236398 -0.255346 -0.148270
v -0.329398 -0.221316 -0.146691
v -0.125656 -0.302939 -0.174121
vt 0.283512 0.401314
vt 0.283512 0.394454
vt 0.282644 0.394395
vt 0.283512 0.385651
vt 0.282643 0.385618
vt 0.283512 0.375864
vt 0.282643 0.375864
vt 0.283512 0.366145
vt 0.282643 0.366178
vt 0.283512 0.357391
vt 0.282643 0.357453
vt 0.282643 0.350464
vt 0.480567 0.163382
vt 0.485004 0.163380
vt 0.485045 0.160620
vt 0.489356 0.160629
vt 0.480698 0.089793
vt 0.485081 0.089744
vt 0.485038 0.086884
vt 0.489350 0.086855
vt 0.475869 0.123823
vt 0.482223 0.123844
vt 0.482531 0.115766
vt 0.488545 0.115743
vt 0.288463 0.186231
vt 0.287632 0.181733
vt 0.287632 0.186578
vt 0.288463 0.190944
vt 0.289083 0.181531
vt 0.289058 0.179547
vt 0.288459 0.179556
vt 0.288463 0.181618
vt 0.288942 0.179221
vt 0.288451 0.179208
vt 0.287639 0.179204
vt 0.287633 0.179570
vt 0.287632 0.207733
vt 0.287634 0.209896
vt 0.288458 0.209908
vt 0.288461 0.207847
vt 0.287648 0.210263
vt 0.288458 0.210258
vt 0.288950 0.210245
vt 0.289063 0.209918
vt 0.289086 0.207935
vt 0.489336 0.084086
vt 0.491276 0.084085
vt 0.491271 0.082750
vt 0.489322 0.082747
vt 0.491595 0.084089
vt 0.491591 0.082759
vt 0.491571 0.082459
vt 0.491253 0.082422
vt 0.489272 0.082412
vt 0.476057 0.163413
vt 0.476034 0.164822
vt 0.476788 0.164807
vt 0.476816 0.163400
vt 0.476165 0.165244
vt 0.476902 0.165221
vt 0.477406 0.165160
vt 0.477455 0.164792
vt 0.477506 0.163390
vt 0.283513 0.336033
vt 0.283512 0.334697
vt 0.282684 0.334698
vt 0.282680 0.336033
vt 0.283512 0.334358
vt 0.282698 0.334366
vt 0.282208 0.334401
vt 0.282088 0.334703
vt 0.282064 0.336033
vt 0.283512 0.409805
vt 0.283512 0.408051
vt 0.282674 0.408056
vt 0.282680 0.409805
vt 0.283512 0.405807
vt 0.282653 0.405812
vt 0.281806 0.405834
vt 0.282037 0.408097
vt 0.282064 0.409806
vt 0.282646 0.401257
vt 0.281777 0.393981
vt 0.281797 0.400787
vt 0.281767 0.375863
vt 0.281768 0.385389
vt 0.281767 0.357888
vt 0.281767 0.366406
vt 0.283512 0.350398
vt 0.283513 0.345723
vt 0.282649 0.345725
vt 0.281768 0.345779
vt 0.281767 0.351007
vt 0.476224 0.089829
vt 0.476146 0.091622
vt 0.476913 0.091607
vt 0.476982 0.089817
vt 0.475280 0.093942
vt 0.476075 0.093931
vt 0.477085 0.093966
vt 0.477650 0.091565
vt 0.477671 0.089811
vt 0.473187 0.098629
vt 0.473958 0.098681
vt 0.470598 0.105614
vt 0.471373 0.105662
vt 0.472177 0.106081
vt 0.474693 0.099207
vt 0.468488 0.114294
vt 0.469274 0.114313
vt 0.467625 0.123850
vt 0.468415 0.123837
vt 0.469323 0.123826
vt 0.470150 0.114527
vt 0.468489 0.133407
vt 0.469278 0.133363
vt 0.470601 0.142090
vt 0.471380 0.142020
vt 0.472216 0.141606
vn 0.0001 0.9989 0.0473
vn 0.0000 0.9989 0.0464
vn -0.0001 0.9989 0.0464
vn -0.0008 0.9987 0.0516
vn 0.0124 -0.0544 0.9984
vn 0.0128 -0.0464 0.9988
vn 0.0000 -0.0464 0.9989
vn 0.0000 -0.0371 0.9993
vn -0.0111 -0.0547 0.9984
vn -0.0114 -0.0466 0.9988
vn -0.0114 -0.0466 0.9989
vn 0.0000 -0.0370 0.9993
vn 0.0005 -0.0526 0.9986
vn 0.0006 -0.0464 0.9989
vn 0.0005 -0.0464 0.9989
vn 0.0001 -0.0395 0.9992
vn -0.9978 -0.0030 0.0661
vn -0.9999 0.0018 0.0127
vn -0.9999 -0.0006 0.0127
vn -0.9978 -0.0052 0.0668
vn -0.8645 -0.0182 0.5023
vn -0.8275 0.1616 0.5377
vn -0.9933 0.0950 0.0653
vn -0.9978 -0.0005 0.0667
vn -0.6295 0.6833 0.3699
vn -0.6688 0.7390 0.0809
vn -0.6638 0.7467 0.0433
vn -0.9946 0.1030 0.0156
vn -0.9999 0.0014 0.0126
vn 0.9998 0.0027 0.0199
vn 0.9871 0.1582 0.0243
vn 0.9842 0.1456 0.1010
vn 0.9946 -0.0007 0.1039
vn 0.6155 0.7867 0.0479
vn 0.6259 0.7736 0.0988
vn 0.5693 0.7139 0.4077
vn 0.7803 0.1871 0.5968
vn 0.8166 -0.0201 0.5769
vn -0.0135 -0.0372 0.9992
vn -0.0120 0.2817 0.9594
vn -0.2846 0.2391 0.9284
vn -0.3269 -0.0354 0.9444
vn -0.0062 0.8611 0.5084
vn -0.1710 0.8190 0.5477
vn -0.6295 0.6833 0.3698
vn -0.8275 0.1615 0.5377
vn -0.8645 -0.0182 0.5022
vn -0.0181 -0.7872 0.6165
vn 0.1013 -0.7835 0.6131
vn 0.0991 -0.7528 0.6508
vn -0.0172 -0.7525 0.6583
vn 0.5477 -0.6569 0.5182
vn 0.6889 -0.5380 0.4859
vn 0.6304 -0.4319 0.6450
vn 0.1407 -0.5194 0.8429
vn -0.0089 -0.5418 0.8404
vn -0.0015 0.9987 0.0512
vn -0.0430 0.9978 0.0509
vn -0.0403 0.9967 0.0703
vn -0.0015 0.9974 0.0717
vn -0.6295 0.6832 0.3700
vn -0.1710 0.8190 0.5478
vn -0.0062 0.8610 0.5085
vn 0.0000 0.9987 0.0511
vn 0.0003 0.9987 0.0507
vn 0.0013 0.9977 0.0673
vn 0.0003 0.9975 0.0712
vn 0.0002 0.9988 0.0490
vn 0.0016 0.9982 0.0592
vn 0.0754 0.9415 0.3284
vn 0.0320 0.8879 0.4589
vn 0.0041 0.8662 0.4996
vn 0.0000 0.9989 0.0469
vn 0.0008 0.9987 0.0516
vn 0.0000 0.9989 0.0465
vn 0.0002 0.9988 0.0500
vn 0.0027 0.9982 0.0593
vn 0.0000 0.9988 0.0497
vn -0.0000 0.9988 0.0496
vn -0.0002 0.9989 0.0466
vn -0.0002 0.9988 0.0497
vn -0.0002 0.9989 0.0470
vn -0.0009 0.9987 0.0516
vn -0.0002 0.9988 0.0490
vn -0.0017 0.9983 0.0591
vn -0.0738 0.9447 0.3195
vn -0.0025 0.9983 0.0586
vn -0.0043 -0.7871 0.6168
vn -0.1623 -0.7754 0.6102
vn -0.1441 -0.7381 0.6592
vn -0.0031 -0.7511 0.6602
vn -0.2991 -0.7484 0.5920
vn -0.2809 -0.7162 0.6389
vn -0.2630 -0.5543 0.7897
vn -0.1211 -0.5299 0.8394
vn -0.0035 -0.5395 0.8420
vn -0.2918 -0.7508 0.5926
vn -0.2859 -0.7208 0.6315
vn -0.2219 -0.7672 0.6018
vn -0.2215 -0.7423 0.6325
vn -0.1985 -0.6816 0.7043
vn -0.2571 -0.6520 0.7133
vn -0.1221 -0.7822 0.6110
vn -0.1235 -0.7607 0.6373
vn 0.0000 -0.7884 0.6152
vn 0.0003 -0.7674 0.6411
vn 0.0011 -0.7087 0.7055
f 55/1/1 57/2/2 58/3/2
f 57/2/2 61/4/2 62/5/2
f 57/2/2 62/5/2 58/3/2
f 61/4/2 63/6/2 64/7/2
f 61/4/2 64/7/2 62/5/2
f 63/6/2 67/8/2 68/9/2
f 63/6/2 68/9/2 64/7/2
f 67/8/2 69/10/2 70/11/2
f 67/8/2 70/11/2 68/9/2
f 69/10/3 74/12/4 70/11/3
f 1/29/21 2/30/22 3/31/23
f 1/29/21 3/31/23 4/32/24
f 2/30/22 5/33/25 6/34/26
f 2/30/22 6/34/26 3/31/23
f 3/31/23 6/34/26 7/35/27
f 3/31/23 7/35/27 8/36/28
f 4/32/24 3/31/23 8/36/28
f 4/32/24 8/36/28 9/26/29
f 10/37/30 11/38/31 12/39/32
f 10/37/30 12/39/32 13/40/33
f 11/38/31 14/41/34 15/42/35
f 11/38/31 15/42/35 12/39/32
f 12/39/32 15/42/35 16/43/36
f 12/39/32 16/43/36 17/44/37
f 13/40/33 12/39/32 17/44/37
f 13/40/33 17/44/37 18/45/38
f 19/46/39 20/47/40 21/48/41
f 19/46/39 21/48/41 22/49/42
f 20/47/40 23/50/43 24/51/44
f 20/47/40 24/51/44 21/48/41
f 21/48/41 24/51/44 25/52/45
f 21/48/41 25/52/45 26/53/46
f 22/49/42 21/48/41 26/53/46
f 22/49/42 26/53/46 27/54/47